<?xml version="1.0" standalone="no"?>
<!DOCTYPE svg PUBLIC "-//W3C//DTD SVG 20010904//EN"
 "http://www.w3.org/TR/2001/REC-SVG-20010904/DTD/svg10.dtd">
<svg version="1.0" xmlns="http://www.w3.org/2000/svg"
 width="685.000000pt" height="685.000000pt" viewBox="0 0 685.000000 685.000000"
 preserveAspectRatio="xMidYMid meet">
<metadata>
Created by potrace 1.14, written by Peter Selinger 2001-2017
</metadata>
<g transform="translate(0.000000,685.000000) scale(0.100000,-0.100000)"
fill="#000000" stroke="none">
<path d="M270 3745 l0 -3105 3150 0 3150 0 0 3105 0 3105 -3150 0 -3150 0 0
-3105z m6090 2965 c0 -5 -4 -10 -10 -10 -5 0 -10 5 -10 10 0 6 5 10 10 10 6 0
10 -4 10 -10z m-6050 -130 c0 -5 -4 -10 -10 -10 -5 0 -10 5 -10 10 0 6 5 10
10 10 6 0 10 -4 10 -10z m6224 -241 c-3 -5 -10 -7 -15 -3 -5 3 -7 10 -3 15 3
5 10 7 15 3 5 -3 7 -10 3 -15z m-2984 -39 c327 -29 580 -100 877 -246 419
-206 737 -500 993 -919 242 -396 368 -924 331 -1390 -6 -77 -14 -155 -17 -172
l-6 -33 -2368 0 -2368 0 -6 33 c-3 17 -11 95 -17 172 -26 326 29 694 151 1020
140 372 415 753 723 1004 187 152 470 312 700 396 313 114 679 163 1007 135z
m-2390 -890 c0 -5 -4 -10 -10 -10 -5 0 -10 5 -10 10 0 6 5 10 10 10 6 0 10 -4
10 -10z m-810 -1890 c0 -5 -4 -10 -10 -10 -5 0 -10 5 -10 10 0 6 5 10 10 10 6
0 10 -4 10 -10z m5370 -37 c-1 -51 -91 -365 -134 -465 l-16 -38 -2210 0 -2210
0 -16 38 c-43 100 -133 414 -134 465 0 4 1062 7 2360 7 1298 0 2360 -3 2360
-7z m-1960 -563 c0 -5 -4 -10 -10 -10 -5 0 -10 5 -10 10 0 6 5 10 10 10 6 0
10 -4 10 -10z m1700 -167 c-23 -43 -71 -122 -106 -175 l-65 -98 -1929 0 -1929
0 -65 98 c-35 53 -83 132 -106 175 l-42 77 2142 0 2142 0 -42 -77z m-4400 -73
c0 -5 -4 -10 -10 -10 -5 0 -10 5 -10 10 0 6 5 10 10 10 6 0 10 -4 10 -10z
m160 -400 c0 -5 -2 -10 -4 -10 -3 0 -8 5 -11 10 -3 6 -1 10 4 10 6 0 11 -4 11
-10z m3795 -105 l-110 -105 -1545 0 -1545 0 -110 105 -110 104 1765 0 1765 0
-110 -104z m480 -115 c3 -5 1 -10 -4 -10 -6 0 -11 5 -11 10 0 6 2 10 4 10 3 0
8 -4 11 -10z m-1756 -214 c-2 -2 -83 -26 -180 -55 l-177 -51 -521 0 -521 0
-88 45 c-48 24 -94 49 -102 54 -10 7 235 11 789 11 442 0 802 -2 800 -4z"/>
<path d="M270 565 l0 -35 316 0 315 0 45 30 c24 17 44 33 44 35 0 3 -162 5
-360 5 l-360 0 0 -35z"/>
<path d="M982 567 l-44 -32 573 -3 574 -2 35 35 35 35 -565 -1 -565 -1 -43
-31z"/>
<path d="M2160 565 l-34 -35 612 0 612 0 0 35 0 35 -578 0 -578 0 -34 -35z"/>
<path d="M3370 565 l0 -35 612 0 612 0 -34 35 -34 35 -578 0 -578 0 0 -35z"/>
<path d="M4600 565 l35 -35 574 2 573 3 -46 33 -47 32 -562 0 -562 0 35 -35z"/>
<path d="M5730 595 c0 -2 20 -18 44 -35 l45 -30 375 0 376 0 0 35 0 35 -420 0
c-231 0 -420 -2 -420 -5z"/>
<path d="M270 435 l0 -65 201 0 201 0 82 56 c44 31 85 61 90 65 6 5 -117 9
-282 9 l-292 0 0 -65z"/>
<path d="M797 437 l-88 -62 608 -3 608 -2 65 65 65 65 -585 -1 -585 0 -88 -62z"/>
<path d="M2030 435 l-64 -65 692 0 692 0 0 65 0 65 -628 0 -628 0 -64 -65z"/>
<path d="M3370 435 l0 -65 692 0 692 0 -64 65 -64 65 -628 0 -628 0 0 -65z"/>
<path d="M4730 435 l65 -65 608 2 608 3 -90 63 -90 62 -583 0 -583 0 65 -65z"/>
<path d="M5876 491 c5 -4 46 -34 90 -65 l82 -56 261 0 261 0 0 65 0 65 -352 0
c-199 0 -348 -4 -342 -9z"/>
<path d="M270 245 l0 -85 51 0 c47 0 59 6 148 67 166 115 170 103 -28 103
l-171 0 0 -85z"/>
<path d="M531 250 c-63 -44 -117 -82 -119 -85 -3 -3 289 -5 649 -5 l654 0 50
48 c28 26 66 65 84 85 l35 37 -620 0 -619 0 -114 -80z"/>
<path d="M1865 272 c-34 -31 -71 -69 -85 -84 l-23 -28 796 0 797 0 0 85 0 85
-712 0 -713 -1 -60 -57z"/>
<path d="M3370 245 l0 -85 797 0 796 0 -24 27 c-13 16 -51 54 -84 85 l-60 57
-712 1 -713 0 0 -85z"/>
<path d="M4882 280 c24 -27 62 -66 85 -85 l42 -35 651 2 651 3 -118 82 -118
83 -618 0 -618 0 43 -50z"/>
<path d="M6131 312 c13 -10 67 -49 120 -85 l97 -67 111 0 111 0 0 85 0 85
-231 0 c-226 0 -231 0 -208 -18z"/>
<path d="M270 99 c0 -5 5 -7 10 -4 6 3 10 8 10 11 0 2 -4 4 -10 4 -5 0 -10 -5
-10 -11z"/>
<path d="M303 89 c-27 -17 -33 -28 -33 -55 l0 -34 648 0 648 0 30 32 c16 18
38 43 48 56 l19 22 -664 0 c-655 0 -664 -1 -696 -21z"/>
<path d="M1645 55 l-60 -54 883 -1 882 0 0 55 0 55 -822 0 -823 0 -60 -55z"/>
<path d="M3370 55 l0 -55 883 0 882 1 -60 54 -60 55 -822 0 -823 0 0 -55z"/>
<path d="M5088 73 c64 -81 -13 -73 761 -71 l692 3 -78 53 -78 52 -663 0 -664
0 30 -37z"/>
<path d="M6430 106 c0 -5 127 -96 134 -96 3 0 6 23 6 50 l0 50 -70 0 c-38 0
-70 -2 -70 -4z"/>
</g>
</svg>
